<?xml version="1.0" encoding="UTF-8"?>
<svg xmlns="http://www.w3.org/2000/svg" xmlns:xlink="http://www.w3.org/1999/xlink" fill-opacity="1" color-rendering="auto" color-interpolation="auto" stroke="black" text-rendering="auto" stroke-linecap="square" width="829" stroke-miterlimit="10" stroke-opacity="1" shape-rendering="auto" fill="black" stroke-dasharray="none" font-weight="normal" stroke-width="1" height="737" font-family="'Dialog'" font-style="normal" stroke-linejoin="miter" font-size="12" stroke-dashoffset="0" image-rendering="auto">
  <!--Generated by ySVG-->
  <defs id="genericDefs"/>
  <g>
    <defs id="defs1">
      <clipPath clipPathUnits="userSpaceOnUse" id="clipPath1">
        <path d="M0 0 L829 0 L829 737 L0 737 L0 0 Z"/>
      </clipPath>
      <clipPath clipPathUnits="userSpaceOnUse" id="clipPath2">
        <path d="M-10 -10 L819 -10 L819 727 L-10 727 L-10 -10 Z"/>
      </clipPath>
    </defs>
    <g fill="white" transform="translate(10,10)" stroke="white">
      <rect x="-10" width="829" height="737" y="-10" clip-path="url(#clipPath2)" stroke="none"/>
    </g>
    <g fill="white" stroke="white">
      <rect x="9.1191" width="104.9043" height="15.5664" y="713.748" clip-path="url(#clipPath1)" stroke="none"/>
      <path fill="silver" d="M11.1191 725 L11.1191 716.3281 L13.4805 716.3281 Q15.0508 716.3281 15.7363 716.8584 Q16.4219 717.3887 16.4219 718.6016 Q16.4219 719.9844 15.4844 720.7695 Q14.5469 721.5547 12.8828 721.5547 L12.3379 721.5547 L12.3379 725 ZM12.3379 720.623 L12.8359 720.623 Q13.9316 720.623 14.5293 720.1191 Q15.127 719.6152 15.127 718.6953 Q15.127 717.916 14.6582 717.582 Q14.1895 717.248 13.0938 717.248 L12.3379 717.248 ZM20.2773 725.1465 Q18.9121 725.1465 18.0977 724.2412 Q17.2832 723.3359 17.2832 721.8184 Q17.2832 720.2832 18.1006 719.3896 Q18.918 718.4961 20.3184 718.4961 Q21.7188 718.4961 22.5361 719.3896 Q23.3535 720.2832 23.3535 721.8066 Q23.3535 723.3652 22.5332 724.2559 Q21.7129 725.1465 20.2773 725.1465 ZM20.2949 724.2793 Q22.1289 724.2793 22.1289 721.8066 Q22.1289 719.3633 20.3184 719.3633 Q18.5137 719.3633 18.5137 721.8184 Q18.5137 724.2793 20.2949 724.2793 ZM25.8965 725 L24.0742 718.6367 L25.2051 718.6367 L26.5996 723.5645 L28.1055 718.6367 L29.2598 718.6367 L30.5781 723.5645 L32.1777 718.6367 L33.168 718.6367 L31.0938 725 L29.9336 725 L28.5859 720.0723 L27.0625 725 ZM39.0684 724.7949 Q37.9082 725.1465 37.082 725.1465 Q35.6758 725.1465 34.7881 724.2119 Q33.9004 723.2773 33.9004 721.7891 Q33.9004 720.3418 34.6826 719.416 Q35.4648 718.4902 36.6836 718.4902 Q37.8379 718.4902 38.4678 719.3105 Q39.0977 720.1309 39.0977 721.6426 L39.0918 722 L35.0781 722 Q35.3301 724.2676 37.2988 724.2676 Q38.0195 724.2676 39.0684 723.8809 ZM35.1309 721.1328 L37.9375 721.1328 Q37.9375 719.3574 36.6133 719.3574 Q35.2832 719.3574 35.1309 721.1328 ZM41.0898 725 L41.0898 718.6367 L42.2441 718.6367 L42.2441 719.832 Q42.9297 718.4961 44.2363 718.4961 Q44.4121 718.4961 44.6055 718.5254 L44.6055 719.6035 Q44.3066 719.5039 44.0781 719.5039 Q42.9824 719.5039 42.2441 720.8047 L42.2441 725 ZM50.6641 724.7949 Q49.5039 725.1465 48.6777 725.1465 Q47.2715 725.1465 46.3838 724.2119 Q45.4961 723.2773 45.4961 721.7891 Q45.4961 720.3418 46.2783 719.416 Q47.0605 718.4902 48.2793 718.4902 Q49.4336 718.4902 50.0635 719.3105 Q50.6934 720.1309 50.6934 721.6426 L50.6875 722 L46.6738 722 Q46.9258 724.2676 48.8945 724.2676 Q49.6152 724.2676 50.6641 723.8809 ZM46.7266 721.1328 L49.5332 721.1328 Q49.5332 719.3574 48.209 719.3574 Q46.8789 719.3574 46.7266 721.1328 ZM56.7695 725 L56.7695 723.8047 Q56.0664 725.1465 54.6484 725.1465 Q53.5 725.1465 52.8408 724.3086 Q52.1816 723.4707 52.1816 722.0176 Q52.1816 720.4297 52.9287 719.4629 Q53.6758 718.4961 54.8945 718.4961 Q56.0254 718.4961 56.7695 719.3633 L56.7695 715.748 L57.9297 715.748 L57.9297 725 ZM56.7695 720.1543 Q55.873 719.3633 55.0703 719.3633 Q53.4121 719.3633 53.4121 721.9004 Q53.4121 724.1328 54.8887 724.1328 Q55.8496 724.1328 56.7695 723.084 ZM64.0352 725.0703 L64.0352 715.748 L65.1895 715.748 L65.1895 719.832 Q65.8984 718.4961 67.3164 718.4961 Q68.4648 718.4961 69.124 719.334 Q69.7832 720.1719 69.7832 721.625 Q69.7832 723.207 69.0361 724.1768 Q68.2891 725.1465 67.0703 725.1465 Q65.9395 725.1465 65.1895 724.2793 L65.0488 725.0703 ZM65.1895 723.4824 Q66.0801 724.2793 66.8887 724.2793 Q68.5527 724.2793 68.5527 721.7422 Q68.5527 719.5039 67.0762 719.5039 Q66.1094 719.5039 65.1895 720.5527 ZM71.957 727.3145 L72.9883 725 L70.5273 718.6367 L71.7754 718.6367 L73.5977 723.4297 L75.543 718.6367 L76.6328 718.6367 L73.1582 727.3145 ZM82.0234 727.3145 L83.0547 725 L80.5938 718.6367 L81.8418 718.6367 L83.6641 723.4297 L85.6094 718.6367 L86.6992 718.6367 L83.2246 727.3145 ZM87.8887 725 L87.8887 716.3281 L92.7344 716.3281 L92.7344 717.248 L89.1191 717.248 L89.1191 720.1543 L92.1543 720.1543 L92.1543 721.0625 L89.1191 721.0625 L89.1191 725 ZM94.3574 725 L94.3574 718.6367 L95.5117 718.6367 L95.5117 725 ZM94.3574 717.4824 L94.3574 716.3281 L95.5117 716.3281 L95.5117 717.4824 ZM97.8262 725 L97.8262 715.748 L98.9805 715.748 L98.9805 725 ZM105.959 724.7949 Q104.7988 725.1465 103.9727 725.1465 Q102.5664 725.1465 101.6787 724.2119 Q100.791 723.2773 100.791 721.7891 Q100.791 720.3418 101.5732 719.416 Q102.3555 718.4902 103.5742 718.4902 Q104.7285 718.4902 105.3584 719.3105 Q105.9883 720.1309 105.9883 721.6426 L105.9824 722 L101.9688 722 Q102.2207 724.2676 104.1895 724.2676 Q104.9102 724.2676 105.959 723.8809 ZM102.0215 721.1328 L104.8281 721.1328 Q104.8281 719.3574 103.5039 719.3574 Q102.1738 719.3574 102.0215 721.1328 ZM109.668 725.1465 Q108.877 725.1465 107.7461 724.7773 L107.7461 723.7168 Q108.877 724.2793 109.7148 724.2793 Q110.2129 724.2793 110.541 724.0098 Q110.8691 723.7402 110.8691 723.3359 Q110.8691 722.7441 109.9492 722.3574 L109.2754 722.0703 Q107.7812 721.4492 107.7812 720.2832 Q107.7812 719.4512 108.3701 718.9736 Q108.959 718.4961 109.9844 718.4961 Q110.5176 718.4961 111.3027 718.6426 L111.543 718.6895 L111.543 719.6504 Q110.5762 719.3633 110.0078 719.3633 Q108.8945 719.3633 108.8945 720.1719 Q108.8945 720.6934 109.7383 721.0508 L110.2949 721.2852 Q111.2383 721.6836 111.6309 722.126 Q112.0234 722.5684 112.0234 723.2305 Q112.0234 724.0684 111.3613 724.6074 Q110.6992 725.1465 109.668 725.1465 Z" clip-path="url(#clipPath1)" stroke="none"/>
    </g>
    <g fill="rgb(255,255,204)" transform="matrix(1,0,0,1,10,10)" stroke="rgb(255,255,204)">
      <rect x="288" width="245" height="125" y="452" clip-path="url(#clipPath2)" stroke="none"/>
      <rect x="288" y="452" clip-path="url(#clipPath2)" fill="none" width="245" height="125" stroke="gray"/>
    </g>
    <g font-size="13" font-family="sans-serif" font-weight="bold" transform="matrix(1,0,0,1,10,10)">
      <text x="381" xml:space="preserve" y="471.1895" clip-path="url(#clipPath2)" stroke="none">TimeLag</text>
    </g>
    <g fill="gray" transform="matrix(1,0,0,1,10,10)" stroke="gray">
      <line y2="477" fill="none" x1="289" clip-path="url(#clipPath2)" x2="532" y1="477"/>
    </g>
    <g font-size="10" font-family="'Helvetica'" font-weight="bold" transform="matrix(1,0,0,1,10,10)">
      <text x="298" xml:space="preserve" y="491.6318" clip-path="url(#clipPath2)" stroke="none">Tape</text>
      <text x="392" xml:space="preserve" y="491.6318" font-weight="normal" clip-path="url(#clipPath2)" stroke="none">CHARACTER VARYING(255)</text>
      <text x="298" xml:space="preserve" y="507.6318" clip-path="url(#clipPath2)" stroke="none">Transect Number</text>
      <text x="392" xml:space="preserve" y="507.6318" font-weight="normal" clip-path="url(#clipPath2)" stroke="none">CHARACTER VARYING(255)</text>
      <text x="298" xml:space="preserve" y="523.6318" clip-path="url(#clipPath2)" stroke="none">TimeCode</text>
      <text x="392" xml:space="preserve" y="523.6318" font-weight="normal" clip-path="url(#clipPath2)" stroke="none">CHARACTER VARYING(255)</text>
      <text x="298" xml:space="preserve" y="539.6318" clip-path="url(#clipPath2)" stroke="none">TimeStamp</text>
      <text x="392" xml:space="preserve" y="539.6318" font-weight="normal" clip-path="url(#clipPath2)" stroke="none">CHARACTER VARYING(255)</text>
      <text x="298" xml:space="preserve" y="555.6318" clip-path="url(#clipPath2)" stroke="none">Offset</text>
      <text x="392" xml:space="preserve" y="555.6318" font-weight="normal" clip-path="url(#clipPath2)" stroke="none">CHARACTER VARYING(255)</text>
      <text x="298" xml:space="preserve" y="571.6318" clip-path="url(#clipPath2)" stroke="none">TransectNumber</text>
      <text x="392" xml:space="preserve" y="571.6318" font-weight="normal" clip-path="url(#clipPath2)" stroke="none">CHARACTER VARYING(255)</text>
    </g>
    <g fill="rgb(255,255,204)" transform="matrix(1,0,0,1,10,10)" stroke="rgb(255,255,204)">
      <rect x="558" width="233" height="173" y="0" clip-path="url(#clipPath2)" stroke="none"/>
      <rect x="558" y="0" clip-path="url(#clipPath2)" fill="none" width="233" height="173" stroke="gray"/>
    </g>
    <g font-size="13" font-family="sans-serif" font-weight="bold" transform="matrix(1,0,0,1,10,10)">
      <text x="627" xml:space="preserve" y="18.5684" clip-path="url(#clipPath2)" stroke="none">benthic_cover</text>
    </g>
    <g fill="gray" transform="matrix(1,0,0,1,10,10)" stroke="gray">
      <line y2="25" fill="none" x1="559" clip-path="url(#clipPath2)" x2="790" y1="25"/>
    </g>
    <g font-size="10" font-family="'Helvetica'" font-weight="bold" transform="matrix(1,0,0,1,10,10)">
      <text x="568" xml:space="preserve" y="39.0107" clip-path="url(#clipPath2)" stroke="none">autonumber</text>
      <text x="650" xml:space="preserve" y="39.0107" font-weight="normal" clip-path="url(#clipPath2)" stroke="none">CHARACTER VARYING(255)</text>
      <text x="568" xml:space="preserve" y="55.0107" clip-path="url(#clipPath2)" stroke="none">station</text>
      <text x="650" xml:space="preserve" y="55.0107" font-weight="normal" clip-path="url(#clipPath2)" stroke="none">CHARACTER VARYING(255)</text>
      <text x="568" xml:space="preserve" y="71.0107" clip-path="url(#clipPath2)" stroke="none">transect</text>
      <text x="650" xml:space="preserve" y="71.0107" font-weight="normal" clip-path="url(#clipPath2)" stroke="none">CHARACTER VARYING(255)</text>
      <text x="568" xml:space="preserve" y="87.0107" clip-path="url(#clipPath2)" stroke="none">datetime</text>
      <text x="650" xml:space="preserve" y="87.0107" font-weight="normal" clip-path="url(#clipPath2)" stroke="none">CHARACTER VARYING(255)</text>
      <text x="568" xml:space="preserve" y="103.0107" clip-path="url(#clipPath2)" stroke="none">benthic_cover</text>
      <text x="650" xml:space="preserve" y="103.0107" font-weight="normal" clip-path="url(#clipPath2)" stroke="none">CHARACTER VARYING(255)</text>
      <text x="568" xml:space="preserve" y="119.0107" clip-path="url(#clipPath2)" stroke="none">percent_cover</text>
      <text x="650" xml:space="preserve" y="119.0107" font-weight="normal" clip-path="url(#clipPath2)" stroke="none">CHARACTER VARYING(255)</text>
      <text x="568" xml:space="preserve" y="135.0107" clip-path="url(#clipPath2)" stroke="none">growth form</text>
      <text x="650" xml:space="preserve" y="135.0107" font-weight="normal" clip-path="url(#clipPath2)" stroke="none">CHARACTER VARYING(255)</text>
      <text x="568" xml:space="preserve" y="151.0107" clip-path="url(#clipPath2)" stroke="none">total</text>
      <text x="650" xml:space="preserve" y="151.0107" font-weight="normal" clip-path="url(#clipPath2)" stroke="none">CHARACTER VARYING(255)</text>
      <text x="568" xml:space="preserve" y="167.0107" clip-path="url(#clipPath2)" stroke="none">record created</text>
      <text x="650" xml:space="preserve" y="167.0107" font-weight="normal" clip-path="url(#clipPath2)" stroke="none">CHARACTER VARYING(255)</text>
    </g>
    <g fill="rgb(255,255,204)" transform="matrix(1,0,0,1,10,10)" stroke="rgb(255,255,204)">
      <rect x="281" width="232" height="189" y="0" clip-path="url(#clipPath2)" stroke="none"/>
      <rect x="281" y="0" clip-path="url(#clipPath2)" fill="none" width="232" height="189" stroke="gray"/>
    </g>
    <g font-size="13" font-family="sans-serif" font-weight="bold" transform="matrix(1,0,0,1,10,10)">
      <text x="325.5" xml:space="preserve" y="18.5684" clip-path="url(#clipPath2)" stroke="none">final_benthos_export</text>
    </g>
    <g fill="gray" transform="matrix(1,0,0,1,10,10)" stroke="gray">
      <line y2="25" fill="none" x1="282" clip-path="url(#clipPath2)" x2="512" y1="25"/>
    </g>
    <g font-size="10" font-family="'Helvetica'" font-weight="bold" transform="matrix(1,0,0,1,10,10)">
      <text x="291" xml:space="preserve" y="39.0107" clip-path="url(#clipPath2)" stroke="none">survey</text>
      <text x="372" xml:space="preserve" y="39.0107" font-weight="normal" clip-path="url(#clipPath2)" stroke="none">CHARACTER VARYING(255)</text>
      <text x="291" xml:space="preserve" y="55.0107" clip-path="url(#clipPath2)" stroke="none">station</text>
      <text x="372" xml:space="preserve" y="55.0107" font-weight="normal" clip-path="url(#clipPath2)" stroke="none">CHARACTER VARYING(255)</text>
      <text x="291" xml:space="preserve" y="71.0107" clip-path="url(#clipPath2)" stroke="none">transect</text>
      <text x="372" xml:space="preserve" y="71.0107" font-weight="normal" clip-path="url(#clipPath2)" stroke="none">CHARACTER VARYING(255)</text>
      <text x="291" xml:space="preserve" y="87.0107" clip-path="url(#clipPath2)" stroke="none">datetime</text>
      <text x="372" xml:space="preserve" y="87.0107" font-weight="normal" clip-path="url(#clipPath2)" stroke="none">CHARACTER VARYING(255)</text>
      <text x="291" xml:space="preserve" y="103.0107" clip-path="url(#clipPath2)" stroke="none">lat</text>
      <text x="372" xml:space="preserve" y="103.0107" font-weight="normal" clip-path="url(#clipPath2)" stroke="none">CHARACTER VARYING(255)</text>
      <text x="291" xml:space="preserve" y="119.0107" clip-path="url(#clipPath2)" stroke="none">lon</text>
      <text x="372" xml:space="preserve" y="119.0107" font-weight="normal" clip-path="url(#clipPath2)" stroke="none">CHARACTER VARYING(255)</text>
      <text x="291" xml:space="preserve" y="135.0107" clip-path="url(#clipPath2)" stroke="none">depth</text>
      <text x="372" xml:space="preserve" y="135.0107" font-weight="normal" clip-path="url(#clipPath2)" stroke="none">CHARACTER VARYING(255)</text>
      <text x="291" xml:space="preserve" y="151.0107" clip-path="url(#clipPath2)" stroke="none">benthic_cover</text>
      <text x="372" xml:space="preserve" y="151.0107" font-weight="normal" clip-path="url(#clipPath2)" stroke="none">CHARACTER VARYING(255)</text>
      <text x="291" xml:space="preserve" y="167.0107" clip-path="url(#clipPath2)" stroke="none">percent_cover</text>
      <text x="372" xml:space="preserve" y="167.0107" font-weight="normal" clip-path="url(#clipPath2)" stroke="none">CHARACTER VARYING(255)</text>
      <text x="291" xml:space="preserve" y="183.0107" clip-path="url(#clipPath2)" stroke="none">growth form</text>
      <text x="372" xml:space="preserve" y="183.0107" font-weight="normal" clip-path="url(#clipPath2)" stroke="none">CHARACTER VARYING(255)</text>
    </g>
    <g fill="rgb(255,255,204)" transform="matrix(1,0,0,1,10,10)" stroke="rgb(255,255,204)">
      <rect x="0" width="232" height="173" y="234" clip-path="url(#clipPath2)" stroke="none"/>
      <rect x="0" y="234" clip-path="url(#clipPath2)" fill="none" width="232" height="173" stroke="gray"/>
    </g>
    <g font-size="13" font-family="sans-serif" font-weight="bold" transform="matrix(1,0,0,1,10,10)">
      <text x="40" xml:space="preserve" y="252.8789" clip-path="url(#clipPath2)" stroke="none">final_substrata_export</text>
    </g>
    <g fill="gray" transform="matrix(1,0,0,1,10,10)" stroke="gray">
      <line y2="259" fill="none" x1="1" clip-path="url(#clipPath2)" x2="231" y1="259"/>
    </g>
    <g font-size="10" font-family="'Helvetica'" font-weight="bold" transform="matrix(1,0,0,1,10,10)">
      <text x="10" xml:space="preserve" y="273.3213" clip-path="url(#clipPath2)" stroke="none">survey</text>
      <text x="91" xml:space="preserve" y="273.3213" font-weight="normal" clip-path="url(#clipPath2)" stroke="none">CHARACTER VARYING(255)</text>
      <text x="10" xml:space="preserve" y="289.3213" clip-path="url(#clipPath2)" stroke="none">station</text>
      <text x="91" xml:space="preserve" y="289.3213" font-weight="normal" clip-path="url(#clipPath2)" stroke="none">CHARACTER VARYING(255)</text>
      <text x="10" xml:space="preserve" y="305.3213" clip-path="url(#clipPath2)" stroke="none">transect</text>
      <text x="91" xml:space="preserve" y="305.3213" font-weight="normal" clip-path="url(#clipPath2)" stroke="none">CHARACTER VARYING(255)</text>
      <text x="10" xml:space="preserve" y="321.3213" clip-path="url(#clipPath2)" stroke="none">datetime</text>
      <text x="91" xml:space="preserve" y="321.3213" font-weight="normal" clip-path="url(#clipPath2)" stroke="none">CHARACTER VARYING(255)</text>
      <text x="10" xml:space="preserve" y="337.3213" clip-path="url(#clipPath2)" stroke="none">lat</text>
      <text x="91" xml:space="preserve" y="337.3213" font-weight="normal" clip-path="url(#clipPath2)" stroke="none">CHARACTER VARYING(255)</text>
      <text x="10" xml:space="preserve" y="353.3213" clip-path="url(#clipPath2)" stroke="none">lon</text>
      <text x="91" xml:space="preserve" y="353.3213" font-weight="normal" clip-path="url(#clipPath2)" stroke="none">CHARACTER VARYING(255)</text>
      <text x="10" xml:space="preserve" y="369.3213" clip-path="url(#clipPath2)" stroke="none">depth</text>
      <text x="91" xml:space="preserve" y="369.3213" font-weight="normal" clip-path="url(#clipPath2)" stroke="none">CHARACTER VARYING(255)</text>
      <text x="10" xml:space="preserve" y="385.3213" clip-path="url(#clipPath2)" stroke="none">substr_cover</text>
      <text x="91" xml:space="preserve" y="385.3213" font-weight="normal" clip-path="url(#clipPath2)" stroke="none">CHARACTER VARYING(255)</text>
      <text x="10" xml:space="preserve" y="401.3213" clip-path="url(#clipPath2)" stroke="none">percent_cover</text>
      <text x="91" xml:space="preserve" y="401.3213" font-weight="normal" clip-path="url(#clipPath2)" stroke="none">CHARACTER VARYING(255)</text>
    </g>
    <g fill="rgb(255,255,204)" transform="matrix(1,0,0,1,10,10)" stroke="rgb(255,255,204)">
      <rect x="0" width="236" height="189" y="0" clip-path="url(#clipPath2)" stroke="none"/>
      <rect x="0" y="0" clip-path="url(#clipPath2)" fill="none" width="236" height="189" stroke="gray"/>
    </g>
    <g font-size="13" font-family="sans-serif" font-weight="bold" transform="matrix(1,0,0,1,10,10)">
      <text x="94.5" xml:space="preserve" y="18.5684" clip-path="url(#clipPath2)" stroke="none">frames</text>
    </g>
    <g fill="gray" transform="matrix(1,0,0,1,10,10)" stroke="gray">
      <line y2="25" fill="none" x1="1" clip-path="url(#clipPath2)" x2="235" y1="25"/>
    </g>
    <g font-size="10" font-family="'Helvetica'" font-weight="bold" transform="matrix(1,0,0,1,10,10)">
      <text x="10" xml:space="preserve" y="39.0107" clip-path="url(#clipPath2)" stroke="none">survey</text>
      <text x="95" xml:space="preserve" y="39.0107" font-weight="normal" clip-path="url(#clipPath2)" stroke="none">CHARACTER VARYING(255)</text>
      <text x="10" xml:space="preserve" y="55.0107" clip-path="url(#clipPath2)" stroke="none">station</text>
      <text x="95" xml:space="preserve" y="55.0107" font-weight="normal" clip-path="url(#clipPath2)" stroke="none">CHARACTER VARYING(255)</text>
      <text x="10" xml:space="preserve" y="71.0107" clip-path="url(#clipPath2)" stroke="none">transect</text>
      <text x="95" xml:space="preserve" y="71.0107" font-weight="normal" clip-path="url(#clipPath2)" stroke="none">CHARACTER VARYING(255)</text>
      <text x="10" xml:space="preserve" y="87.0107" clip-path="url(#clipPath2)" stroke="none">datatime</text>
      <text x="95" xml:space="preserve" y="87.0107" font-weight="normal" clip-path="url(#clipPath2)" stroke="none">CHARACTER VARYING(255)</text>
      <text x="10" xml:space="preserve" y="103.0107" clip-path="url(#clipPath2)" stroke="none">lat</text>
      <text x="95" xml:space="preserve" y="103.0107" font-weight="normal" clip-path="url(#clipPath2)" stroke="none">CHARACTER VARYING(255)</text>
      <text x="10" xml:space="preserve" y="119.0107" clip-path="url(#clipPath2)" stroke="none">lon</text>
      <text x="95" xml:space="preserve" y="119.0107" font-weight="normal" clip-path="url(#clipPath2)" stroke="none">CHARACTER VARYING(255)</text>
      <text x="10" xml:space="preserve" y="135.0107" clip-path="url(#clipPath2)" stroke="none">depth</text>
      <text x="95" xml:space="preserve" y="135.0107" font-weight="normal" clip-path="url(#clipPath2)" stroke="none">CHARACTER VARYING(255)</text>
      <text x="10" xml:space="preserve" y="151.0107" clip-path="url(#clipPath2)" stroke="none">autonumber</text>
      <text x="95" xml:space="preserve" y="151.0107" font-weight="normal" clip-path="url(#clipPath2)" stroke="none">CHARACTER VARYING(255)</text>
      <text x="10" xml:space="preserve" y="167.0107" clip-path="url(#clipPath2)" stroke="none">record_created</text>
      <text x="95" xml:space="preserve" y="167.0107" font-weight="normal" clip-path="url(#clipPath2)" stroke="none">CHARACTER VARYING(255)</text>
      <text x="10" xml:space="preserve" y="183.0107" clip-path="url(#clipPath2)" stroke="none">Comments</text>
      <text x="95" xml:space="preserve" y="183.0107" font-weight="normal" clip-path="url(#clipPath2)" stroke="none">CHARACTER VARYING(255)</text>
    </g>
    <g fill="rgb(255,255,204)" transform="matrix(1,0,0,1,10,10)" stroke="rgb(255,255,204)">
      <rect x="0" width="243" height="141" y="452" clip-path="url(#clipPath2)" stroke="none"/>
      <rect x="0" y="452" clip-path="url(#clipPath2)" fill="none" width="243" height="141" stroke="gray"/>
    </g>
    <g font-size="13" font-family="sans-serif" font-weight="bold" transform="matrix(1,0,0,1,10,10)">
      <text x="95" xml:space="preserve" y="471.1895" clip-path="url(#clipPath2)" stroke="none">keytaxa</text>
    </g>
    <g fill="gray" transform="matrix(1,0,0,1,10,10)" stroke="gray">
      <line y2="477" fill="none" x1="1" clip-path="url(#clipPath2)" x2="242" y1="477"/>
    </g>
    <g font-size="10" font-family="'Helvetica'" font-weight="bold" transform="matrix(1,0,0,1,10,10)">
      <text x="10" xml:space="preserve" y="491.6318" clip-path="url(#clipPath2)" stroke="none">Station</text>
      <text x="102" xml:space="preserve" y="491.6318" font-weight="normal" clip-path="url(#clipPath2)" stroke="none">CHARACTER VARYING(255)</text>
      <text x="10" xml:space="preserve" y="507.6318" clip-path="url(#clipPath2)" stroke="none">Transect</text>
      <text x="102" xml:space="preserve" y="507.6318" font-weight="normal" clip-path="url(#clipPath2)" stroke="none">CHARACTER VARYING(255)</text>
      <text x="10" xml:space="preserve" y="523.6318" clip-path="url(#clipPath2)" stroke="none">DataTime</text>
      <text x="102" xml:space="preserve" y="523.6318" font-weight="normal" clip-path="url(#clipPath2)" stroke="none">CHARACTER VARYING(255)</text>
      <text x="10" xml:space="preserve" y="539.6318" clip-path="url(#clipPath2)" stroke="none">KeyTaxa</text>
      <text x="102" xml:space="preserve" y="539.6318" font-weight="normal" clip-path="url(#clipPath2)" stroke="none">CHARACTER VARYING(255)</text>
      <text x="10" xml:space="preserve" y="555.6318" clip-path="url(#clipPath2)" stroke="none">Individual_Count</text>
      <text x="102" xml:space="preserve" y="555.6318" font-weight="normal" clip-path="url(#clipPath2)" stroke="none">CHARACTER VARYING(255)</text>
      <text x="10" xml:space="preserve" y="571.6318" clip-path="url(#clipPath2)" stroke="none">autonumber</text>
      <text x="102" xml:space="preserve" y="571.6318" font-weight="normal" clip-path="url(#clipPath2)" stroke="none">CHARACTER VARYING(255)</text>
      <text x="10" xml:space="preserve" y="587.6318" clip-path="url(#clipPath2)" stroke="none">Record_Creation</text>
      <text x="102" xml:space="preserve" y="587.6318" font-weight="normal" clip-path="url(#clipPath2)" stroke="none">CHARACTER VARYING(255)</text>
    </g>
    <g fill="rgb(255,255,204)" transform="matrix(1,0,0,1,10,10)" stroke="rgb(255,255,204)">
      <rect x="578" width="231" height="77" y="452" clip-path="url(#clipPath2)" stroke="none"/>
      <rect x="578" y="452" clip-path="url(#clipPath2)" fill="none" width="231" height="77" stroke="gray"/>
    </g>
    <g font-size="13" font-family="sans-serif" font-weight="bold" transform="matrix(1,0,0,1,10,10)">
      <text x="627.5" xml:space="preserve" y="471.1895" clip-path="url(#clipPath2)" stroke="none">lkup_benthic_cover</text>
    </g>
    <g fill="gray" transform="matrix(1,0,0,1,10,10)" stroke="gray">
      <line y2="477" fill="none" x1="579" clip-path="url(#clipPath2)" x2="808" y1="477"/>
    </g>
    <g font-size="10" font-family="'Helvetica'" font-weight="bold" transform="matrix(1,0,0,1,10,10)">
      <text x="588" xml:space="preserve" y="491.6318" clip-path="url(#clipPath2)" stroke="none">benthic_cover</text>
      <text x="668" xml:space="preserve" y="491.6318" font-weight="normal" clip-path="url(#clipPath2)" stroke="none">CHARACTER VARYING(255)</text>
      <text x="588" xml:space="preserve" y="507.6318" clip-path="url(#clipPath2)" stroke="none">description</text>
      <text x="668" xml:space="preserve" y="507.6318" font-weight="normal" clip-path="url(#clipPath2)" stroke="none">CHARACTER VARYING(255)</text>
      <text x="588" xml:space="preserve" y="523.6318" clip-path="url(#clipPath2)" stroke="none">image</text>
      <text x="668" xml:space="preserve" y="523.6318" font-weight="normal" clip-path="url(#clipPath2)" stroke="none">CHARACTER VARYING(255)</text>
    </g>
    <g fill="rgb(255,255,204)" transform="matrix(1,0,0,1,10,10)" stroke="rgb(255,255,204)">
      <rect x="261" width="206" height="77" y="638" clip-path="url(#clipPath2)" stroke="none"/>
      <rect x="261" y="638" clip-path="url(#clipPath2)" fill="none" width="206" height="77" stroke="gray"/>
    </g>
    <g font-size="13" font-family="sans-serif" font-weight="bold" transform="matrix(1,0,0,1,10,10)">
      <text x="319" xml:space="preserve" y="657.5" clip-path="url(#clipPath2)" stroke="none">lkup_keytaxa</text>
    </g>
    <g fill="gray" transform="matrix(1,0,0,1,10,10)" stroke="gray">
      <line y2="664" fill="none" x1="262" clip-path="url(#clipPath2)" x2="466" y1="664"/>
    </g>
    <g font-size="10" font-family="'Helvetica'" font-weight="bold" transform="matrix(1,0,0,1,10,10)">
      <text x="271" xml:space="preserve" y="677.9424" clip-path="url(#clipPath2)" stroke="none">keytaxa</text>
      <text x="326" xml:space="preserve" y="677.9424" font-weight="normal" clip-path="url(#clipPath2)" stroke="none">CHARACTER VARYING(255)</text>
      <text x="271" xml:space="preserve" y="693.9424" clip-path="url(#clipPath2)" stroke="none">Family</text>
      <text x="326" xml:space="preserve" y="693.9424" font-weight="normal" clip-path="url(#clipPath2)" stroke="none">CHARACTER VARYING(255)</text>
      <text x="271" xml:space="preserve" y="709.9424" clip-path="url(#clipPath2)" stroke="none">comment</text>
      <text x="326" xml:space="preserve" y="709.9424" font-weight="normal" clip-path="url(#clipPath2)" stroke="none">CHARACTER VARYING(255)</text>
    </g>
    <g fill="rgb(255,255,204)" transform="matrix(1,0,0,1,10,10)" stroke="rgb(255,255,204)">
      <rect x="0" width="216" height="77" y="638" clip-path="url(#clipPath2)" stroke="none"/>
      <rect x="0" y="638" clip-path="url(#clipPath2)" fill="none" width="216" height="77" stroke="gray"/>
    </g>
    <g font-size="13" font-family="sans-serif" font-weight="bold" transform="matrix(1,0,0,1,10,10)">
      <text x="57.5" xml:space="preserve" y="657.5" clip-path="url(#clipPath2)" stroke="none">lkup_substrata</text>
    </g>
    <g fill="gray" transform="matrix(1,0,0,1,10,10)" stroke="gray">
      <line y2="664" fill="none" x1="1" clip-path="url(#clipPath2)" x2="215" y1="664"/>
    </g>
    <g font-size="10" font-family="'Helvetica'" font-weight="bold" transform="matrix(1,0,0,1,10,10)">
      <text x="10" xml:space="preserve" y="677.9424" clip-path="url(#clipPath2)" stroke="none">substrata</text>
      <text x="75" xml:space="preserve" y="677.9424" font-weight="normal" clip-path="url(#clipPath2)" stroke="none">CHARACTER VARYING(255)</text>
      <text x="10" xml:space="preserve" y="693.9424" clip-path="url(#clipPath2)" stroke="none">description</text>
      <text x="75" xml:space="preserve" y="693.9424" font-weight="normal" clip-path="url(#clipPath2)" stroke="none">CHARACTER VARYING(255)</text>
      <text x="10" xml:space="preserve" y="709.9424" clip-path="url(#clipPath2)" stroke="none">image</text>
      <text x="75" xml:space="preserve" y="709.9424" font-weight="normal" clip-path="url(#clipPath2)" stroke="none">CHARACTER VARYING(255)</text>
    </g>
    <g fill="rgb(255,255,204)" transform="matrix(1,0,0,1,10,10)" stroke="rgb(255,255,204)">
      <rect x="277" width="236" height="157" y="234" clip-path="url(#clipPath2)" stroke="none"/>
      <rect x="277" y="234" clip-path="url(#clipPath2)" fill="none" width="236" height="157" stroke="gray"/>
    </g>
    <g font-size="13" font-family="sans-serif" font-weight="bold" transform="matrix(1,0,0,1,10,10)">
      <text x="372" xml:space="preserve" y="252.8789" clip-path="url(#clipPath2)" stroke="none">station</text>
    </g>
    <g fill="gray" transform="matrix(1,0,0,1,10,10)" stroke="gray">
      <line y2="259" fill="none" x1="278" clip-path="url(#clipPath2)" x2="512" y1="259"/>
    </g>
    <g font-size="10" font-family="'Helvetica'" font-weight="bold" transform="matrix(1,0,0,1,10,10)">
      <text x="287" xml:space="preserve" y="273.3213" clip-path="url(#clipPath2)" stroke="none">survey</text>
      <text x="372" xml:space="preserve" y="273.3213" font-weight="normal" clip-path="url(#clipPath2)" stroke="none">CHARACTER VARYING(255)</text>
      <text x="287" xml:space="preserve" y="289.3213" clip-path="url(#clipPath2)" stroke="none">station</text>
      <text x="372" xml:space="preserve" y="289.3213" font-weight="normal" clip-path="url(#clipPath2)" stroke="none">CHARACTER VARYING(255)</text>
      <text x="287" xml:space="preserve" y="305.3213" clip-path="url(#clipPath2)" stroke="none">transect</text>
      <text x="372" xml:space="preserve" y="305.3213" font-weight="normal" clip-path="url(#clipPath2)" stroke="none">CHARACTER VARYING(255)</text>
      <text x="287" xml:space="preserve" y="321.3213" clip-path="url(#clipPath2)" stroke="none">DVD</text>
      <text x="372" xml:space="preserve" y="321.3213" font-weight="normal" clip-path="url(#clipPath2)" stroke="none">CHARACTER VARYING(255)</text>
      <text x="287" xml:space="preserve" y="337.3213" clip-path="url(#clipPath2)" stroke="none">observer</text>
      <text x="372" xml:space="preserve" y="337.3213" font-weight="normal" clip-path="url(#clipPath2)" stroke="none">CHARACTER VARYING(255)</text>
      <text x="287" xml:space="preserve" y="353.3213" clip-path="url(#clipPath2)" stroke="none">Comments</text>
      <text x="372" xml:space="preserve" y="353.3213" font-weight="normal" clip-path="url(#clipPath2)" stroke="none">CHARACTER VARYING(255)</text>
      <text x="287" xml:space="preserve" y="369.3213" clip-path="url(#clipPath2)" stroke="none">autonumber</text>
      <text x="372" xml:space="preserve" y="369.3213" font-weight="normal" clip-path="url(#clipPath2)" stroke="none">CHARACTER VARYING(255)</text>
      <text x="287" xml:space="preserve" y="385.3213" clip-path="url(#clipPath2)" stroke="none">record_created</text>
      <text x="372" xml:space="preserve" y="385.3213" font-weight="normal" clip-path="url(#clipPath2)" stroke="none">CHARACTER VARYING(255)</text>
    </g>
    <g fill="rgb(255,255,204)" transform="matrix(1,0,0,1,10,10)" stroke="rgb(255,255,204)">
      <rect x="558" width="236" height="157" y="234" clip-path="url(#clipPath2)" stroke="none"/>
      <rect x="558" y="234" clip-path="url(#clipPath2)" fill="none" width="236" height="157" stroke="gray"/>
    </g>
    <g font-size="13" font-family="sans-serif" font-weight="bold" transform="matrix(1,0,0,1,10,10)">
      <text x="644" xml:space="preserve" y="252.8789" clip-path="url(#clipPath2)" stroke="none">substrata</text>
    </g>
    <g fill="gray" transform="matrix(1,0,0,1,10,10)" stroke="gray">
      <line y2="259" fill="none" x1="559" clip-path="url(#clipPath2)" x2="793" y1="259"/>
    </g>
    <g font-size="10" font-family="'Helvetica'" font-weight="bold" transform="matrix(1,0,0,1,10,10)">
      <text x="568" xml:space="preserve" y="273.3213" clip-path="url(#clipPath2)" stroke="none">autonumber</text>
      <text x="653" xml:space="preserve" y="273.3213" font-weight="normal" clip-path="url(#clipPath2)" stroke="none">CHARACTER VARYING(255)</text>
      <text x="568" xml:space="preserve" y="289.3213" clip-path="url(#clipPath2)" stroke="none">station</text>
      <text x="653" xml:space="preserve" y="289.3213" font-weight="normal" clip-path="url(#clipPath2)" stroke="none">CHARACTER VARYING(255)</text>
      <text x="568" xml:space="preserve" y="305.3213" clip-path="url(#clipPath2)" stroke="none">transect</text>
      <text x="653" xml:space="preserve" y="305.3213" font-weight="normal" clip-path="url(#clipPath2)" stroke="none">CHARACTER VARYING(255)</text>
      <text x="568" xml:space="preserve" y="321.3213" clip-path="url(#clipPath2)" stroke="none">datetime</text>
      <text x="653" xml:space="preserve" y="321.3213" font-weight="normal" clip-path="url(#clipPath2)" stroke="none">CHARACTER VARYING(255)</text>
      <text x="568" xml:space="preserve" y="337.3213" clip-path="url(#clipPath2)" stroke="none">substr_cover</text>
      <text x="653" xml:space="preserve" y="337.3213" font-weight="normal" clip-path="url(#clipPath2)" stroke="none">CHARACTER VARYING(255)</text>
      <text x="568" xml:space="preserve" y="353.3213" clip-path="url(#clipPath2)" stroke="none">percent_cover</text>
      <text x="653" xml:space="preserve" y="353.3213" font-weight="normal" clip-path="url(#clipPath2)" stroke="none">CHARACTER VARYING(255)</text>
      <text x="568" xml:space="preserve" y="369.3213" clip-path="url(#clipPath2)" stroke="none">total</text>
      <text x="653" xml:space="preserve" y="369.3213" font-weight="normal" clip-path="url(#clipPath2)" stroke="none">CHARACTER VARYING(255)</text>
      <text x="568" xml:space="preserve" y="385.3213" clip-path="url(#clipPath2)" stroke="none">record_created</text>
      <text x="653" xml:space="preserve" y="385.3213" font-weight="normal" clip-path="url(#clipPath2)" stroke="none">CHARACTER VARYING(255)</text>
    </g>
  </g>
</svg>
