<?xml version="1.0" encoding="UTF-8"?>
<svg xmlns="http://www.w3.org/2000/svg" xmlns:xlink="http://www.w3.org/1999/xlink" fill-opacity="1" color-rendering="auto" color-interpolation="auto" stroke="black" text-rendering="auto" stroke-linecap="square" width="882" stroke-miterlimit="10" stroke-opacity="1" shape-rendering="auto" fill="black" stroke-dasharray="none" font-weight="normal" stroke-width="1" height="832" font-family="'Dialog'" font-style="normal" stroke-linejoin="miter" font-size="12" stroke-dashoffset="0" image-rendering="auto">
  <!--Generated by ySVG-->
  <defs id="genericDefs"/>
  <g>
    <defs id="defs1">
      <clipPath clipPathUnits="userSpaceOnUse" id="clipPath1">
        <path d="M0 0 L882 0 L882 832 L0 832 L0 0 Z"/>
      </clipPath>
      <clipPath clipPathUnits="userSpaceOnUse" id="clipPath2">
        <path d="M-9.8221 -10 L918.8221 -10 L918.8221 866 L-9.8221 866 L-9.8221 -10 Z"/>
      </clipPath>
    </defs>
    <g fill="white" transform="scale(0.9498,0.9498) translate(9.8221,10)" stroke="white">
      <rect x="-10" width="929" height="877" y="-11" clip-path="url(#clipPath2)" stroke="none"/>
    </g>
    <g fill="white" stroke="white">
      <rect x="9.1191" width="104.9043" height="15.5664" y="808.748" clip-path="url(#clipPath1)" stroke="none"/>
      <path fill="silver" d="M11.1191 820 L11.1191 811.3281 L13.4805 811.3281 Q15.0508 811.3281 15.7363 811.8584 Q16.4219 812.3887 16.4219 813.6016 Q16.4219 814.9844 15.4844 815.7695 Q14.5469 816.5547 12.8828 816.5547 L12.3379 816.5547 L12.3379 820 ZM12.3379 815.623 L12.8359 815.623 Q13.9316 815.623 14.5293 815.1191 Q15.127 814.6152 15.127 813.6953 Q15.127 812.916 14.6582 812.582 Q14.1895 812.248 13.0938 812.248 L12.3379 812.248 ZM20.2773 820.1465 Q18.9121 820.1465 18.0977 819.2412 Q17.2832 818.3359 17.2832 816.8184 Q17.2832 815.2832 18.1006 814.3896 Q18.918 813.4961 20.3184 813.4961 Q21.7188 813.4961 22.5361 814.3896 Q23.3535 815.2832 23.3535 816.8066 Q23.3535 818.3652 22.5332 819.2559 Q21.7129 820.1465 20.2773 820.1465 ZM20.2949 819.2793 Q22.1289 819.2793 22.1289 816.8066 Q22.1289 814.3633 20.3184 814.3633 Q18.5137 814.3633 18.5137 816.8184 Q18.5137 819.2793 20.2949 819.2793 ZM25.8965 820 L24.0742 813.6367 L25.2051 813.6367 L26.5996 818.5645 L28.1055 813.6367 L29.2598 813.6367 L30.5781 818.5645 L32.1777 813.6367 L33.168 813.6367 L31.0938 820 L29.9336 820 L28.5859 815.0723 L27.0625 820 ZM39.0684 819.7949 Q37.9082 820.1465 37.082 820.1465 Q35.6758 820.1465 34.7881 819.2119 Q33.9004 818.2773 33.9004 816.7891 Q33.9004 815.3418 34.6826 814.416 Q35.4648 813.4902 36.6836 813.4902 Q37.8379 813.4902 38.4678 814.3105 Q39.0977 815.1309 39.0977 816.6426 L39.0918 817 L35.0781 817 Q35.3301 819.2676 37.2988 819.2676 Q38.0195 819.2676 39.0684 818.8809 ZM35.1309 816.1328 L37.9375 816.1328 Q37.9375 814.3574 36.6133 814.3574 Q35.2832 814.3574 35.1309 816.1328 ZM41.0898 820 L41.0898 813.6367 L42.2441 813.6367 L42.2441 814.832 Q42.9297 813.4961 44.2363 813.4961 Q44.4121 813.4961 44.6055 813.5254 L44.6055 814.6035 Q44.3066 814.5039 44.0781 814.5039 Q42.9824 814.5039 42.2441 815.8047 L42.2441 820 ZM50.6641 819.7949 Q49.5039 820.1465 48.6777 820.1465 Q47.2715 820.1465 46.3838 819.2119 Q45.4961 818.2773 45.4961 816.7891 Q45.4961 815.3418 46.2783 814.416 Q47.0605 813.4902 48.2793 813.4902 Q49.4336 813.4902 50.0635 814.3105 Q50.6934 815.1309 50.6934 816.6426 L50.6875 817 L46.6738 817 Q46.9258 819.2676 48.8945 819.2676 Q49.6152 819.2676 50.6641 818.8809 ZM46.7266 816.1328 L49.5332 816.1328 Q49.5332 814.3574 48.209 814.3574 Q46.8789 814.3574 46.7266 816.1328 ZM56.7695 820 L56.7695 818.8047 Q56.0664 820.1465 54.6484 820.1465 Q53.5 820.1465 52.8408 819.3086 Q52.1816 818.4707 52.1816 817.0176 Q52.1816 815.4297 52.9287 814.4629 Q53.6758 813.4961 54.8945 813.4961 Q56.0254 813.4961 56.7695 814.3633 L56.7695 810.748 L57.9297 810.748 L57.9297 820 ZM56.7695 815.1543 Q55.873 814.3633 55.0703 814.3633 Q53.4121 814.3633 53.4121 816.9004 Q53.4121 819.1328 54.8887 819.1328 Q55.8496 819.1328 56.7695 818.084 ZM64.0352 820.0703 L64.0352 810.748 L65.1895 810.748 L65.1895 814.832 Q65.8984 813.4961 67.3164 813.4961 Q68.4648 813.4961 69.124 814.334 Q69.7832 815.1719 69.7832 816.625 Q69.7832 818.207 69.0361 819.1768 Q68.2891 820.1465 67.0703 820.1465 Q65.9395 820.1465 65.1895 819.2793 L65.0488 820.0703 ZM65.1895 818.4824 Q66.0801 819.2793 66.8887 819.2793 Q68.5527 819.2793 68.5527 816.7422 Q68.5527 814.5039 67.0762 814.5039 Q66.1094 814.5039 65.1895 815.5527 ZM71.957 822.3145 L72.9883 820 L70.5273 813.6367 L71.7754 813.6367 L73.5977 818.4297 L75.543 813.6367 L76.6328 813.6367 L73.1582 822.3145 ZM82.0234 822.3145 L83.0547 820 L80.5938 813.6367 L81.8418 813.6367 L83.6641 818.4297 L85.6094 813.6367 L86.6992 813.6367 L83.2246 822.3145 ZM87.8887 820 L87.8887 811.3281 L92.7344 811.3281 L92.7344 812.248 L89.1191 812.248 L89.1191 815.1543 L92.1543 815.1543 L92.1543 816.0625 L89.1191 816.0625 L89.1191 820 ZM94.3574 820 L94.3574 813.6367 L95.5117 813.6367 L95.5117 820 ZM94.3574 812.4824 L94.3574 811.3281 L95.5117 811.3281 L95.5117 812.4824 ZM97.8262 820 L97.8262 810.748 L98.9805 810.748 L98.9805 820 ZM105.959 819.7949 Q104.7988 820.1465 103.9727 820.1465 Q102.5664 820.1465 101.6787 819.2119 Q100.791 818.2773 100.791 816.7891 Q100.791 815.3418 101.5732 814.416 Q102.3555 813.4902 103.5742 813.4902 Q104.7285 813.4902 105.3584 814.3105 Q105.9883 815.1309 105.9883 816.6426 L105.9824 817 L101.9688 817 Q102.2207 819.2676 104.1895 819.2676 Q104.9102 819.2676 105.959 818.8809 ZM102.0215 816.1328 L104.8281 816.1328 Q104.8281 814.3574 103.5039 814.3574 Q102.1738 814.3574 102.0215 816.1328 ZM109.668 820.1465 Q108.877 820.1465 107.7461 819.7773 L107.7461 818.7168 Q108.877 819.2793 109.7148 819.2793 Q110.2129 819.2793 110.541 819.0098 Q110.8691 818.7402 110.8691 818.3359 Q110.8691 817.7441 109.9492 817.3574 L109.2754 817.0703 Q107.7812 816.4492 107.7812 815.2832 Q107.7812 814.4512 108.3701 813.9736 Q108.959 813.4961 109.9844 813.4961 Q110.5176 813.4961 111.3027 813.6426 L111.543 813.6895 L111.543 814.6504 Q110.5762 814.3633 110.0078 814.3633 Q108.8945 814.3633 108.8945 815.1719 Q108.8945 815.6934 109.7383 816.0508 L110.2949 816.2852 Q111.2383 816.6836 111.6309 817.126 Q112.0234 817.5684 112.0234 818.2305 Q112.0234 819.0684 111.3613 819.6074 Q110.6992 820.1465 109.668 820.1465 Z" clip-path="url(#clipPath1)" stroke="none"/>
    </g>
    <g fill="rgb(255,255,204)" transform="matrix(0.9498,0,0,0.9498,9.3288,9.4977)" stroke="rgb(255,255,204)">
      <rect x="0" width="302" height="605" y="0" clip-path="url(#clipPath2)" stroke="none"/>
      <rect x="0" y="0" clip-path="url(#clipPath2)" fill="none" width="302" height="605" stroke="gray"/>
    </g>
    <g font-size="13" font-family="sans-serif" font-weight="bold" transform="matrix(0.9498,0,0,0.9498,9.3288,9.4977)">
      <text x="127" xml:space="preserve" y="18.5684" clip-path="url(#clipPath2)" stroke="none">Factors</text>
    </g>
    <g fill="gray" transform="matrix(0.9498,0,0,0.9498,9.3288,9.4977)" stroke="gray">
      <line y2="25" fill="none" x1="1" clip-path="url(#clipPath2)" x2="301" y1="25"/>
    </g>
    <g font-size="10" font-family="'Helvetica'" font-weight="bold" transform="matrix(0.9498,0,0,0.9498,9.3288,9.4977)">
      <text x="10" xml:space="preserve" y="39.0107" clip-path="url(#clipPath2)" stroke="none">ID_Factor_ID</text>
      <text x="118" xml:space="preserve" y="39.0107" font-weight="normal" clip-path="url(#clipPath2)" stroke="none">INTEGER</text>
      <text x="10" xml:space="preserve" y="55.0107" clip-path="url(#clipPath2)" stroke="none">Project Name</text>
      <text x="118" xml:space="preserve" y="55.0107" font-weight="normal" clip-path="url(#clipPath2)" stroke="none">CHARACTER VARYING(255)</text>
      <text x="10" xml:space="preserve" y="71.0107" clip-path="url(#clipPath2)" stroke="none">Factor_ID</text>
      <text x="118" xml:space="preserve" y="71.0107" font-weight="normal" clip-path="url(#clipPath2)" stroke="none">INTEGER</text>
      <text x="10" xml:space="preserve" y="87.0107" clip-path="url(#clipPath2)" stroke="none">Factor_Region</text>
      <text x="118" xml:space="preserve" y="87.0107" font-weight="normal" clip-path="url(#clipPath2)" stroke="none">CHARACTER VARYING(255)</text>
      <text x="10" xml:space="preserve" y="103.0107" clip-path="url(#clipPath2)" stroke="none">Factor_Location</text>
      <text x="118" xml:space="preserve" y="103.0107" font-weight="normal" clip-path="url(#clipPath2)" stroke="none">CHARACTER VARYING(255)</text>
      <text x="10" xml:space="preserve" y="119.0107" clip-path="url(#clipPath2)" stroke="none">Factor_Gear</text>
      <text x="118" xml:space="preserve" y="119.0107" font-weight="normal" clip-path="url(#clipPath2)" stroke="none">CHARACTER VARYING(255)</text>
      <text x="10" xml:space="preserve" y="135.0107" clip-path="url(#clipPath2)" stroke="none">FACTOR_YEAR</text>
      <text x="118" xml:space="preserve" y="135.0107" font-weight="normal" clip-path="url(#clipPath2)" stroke="none">INTEGER</text>
      <text x="10" xml:space="preserve" y="151.0107" clip-path="url(#clipPath2)" stroke="none">FACTOR_MONTH</text>
      <text x="118" xml:space="preserve" y="151.0107" font-weight="normal" clip-path="url(#clipPath2)" stroke="none">INTEGER</text>
      <text x="10" xml:space="preserve" y="167.0107" clip-path="url(#clipPath2)" stroke="none">Fished</text>
      <text x="118" xml:space="preserve" y="167.0107" font-weight="normal" clip-path="url(#clipPath2)" stroke="none">CHARACTER VARYING(255)</text>
      <text x="10" xml:space="preserve" y="183.0107" clip-path="url(#clipPath2)" stroke="none">Location</text>
      <text x="118" xml:space="preserve" y="183.0107" font-weight="normal" clip-path="url(#clipPath2)" stroke="none">CHARACTER VARYING(255)</text>
      <text x="10" xml:space="preserve" y="199.0107" clip-path="url(#clipPath2)" stroke="none">Depth_Strata</text>
      <text x="118" xml:space="preserve" y="199.0107" font-weight="normal" clip-path="url(#clipPath2)" stroke="none">CHARACTER VARYING(255)</text>
      <text x="10" xml:space="preserve" y="215.0107" clip-path="url(#clipPath2)" stroke="none">Depth_strata_Metro</text>
      <text x="118" xml:space="preserve" y="215.0107" font-weight="normal" clip-path="url(#clipPath2)" stroke="none">CHARACTER VARYING(255)</text>
      <text x="10" xml:space="preserve" y="231.0107" clip-path="url(#clipPath2)" stroke="none">MetroSites</text>
      <text x="118" xml:space="preserve" y="231.0107" font-weight="normal" clip-path="url(#clipPath2)" stroke="none">CHARACTER VARYING(255)</text>
      <text x="10" xml:space="preserve" y="247.0107" clip-path="url(#clipPath2)" stroke="none">Sites</text>
      <text x="118" xml:space="preserve" y="247.0107" font-weight="normal" clip-path="url(#clipPath2)" stroke="none">CHARACTER VARYING(255)</text>
      <text x="10" xml:space="preserve" y="263.0107" clip-path="url(#clipPath2)" stroke="none">Sitesof6</text>
      <text x="118" xml:space="preserve" y="263.0107" font-weight="normal" clip-path="url(#clipPath2)" stroke="none">CHARACTER VARYING(255)</text>
      <text x="10" xml:space="preserve" y="279.0107" clip-path="url(#clipPath2)" stroke="none">Sitesof4Stereo</text>
      <text x="118" xml:space="preserve" y="279.0107" font-weight="normal" clip-path="url(#clipPath2)" stroke="none">CHARACTER VARYING(255)</text>
      <text x="10" xml:space="preserve" y="295.0107" clip-path="url(#clipPath2)" stroke="none">Factor_OPCODE</text>
      <text x="118" xml:space="preserve" y="295.0107" font-weight="normal" clip-path="url(#clipPath2)" stroke="none">CHARACTER VARYING(255)</text>
      <text x="10" xml:space="preserve" y="311.0107" clip-path="url(#clipPath2)" stroke="none">Zone</text>
      <text x="118" xml:space="preserve" y="311.0107" font-weight="normal" clip-path="url(#clipPath2)" stroke="none">INTEGER</text>
      <text x="10" xml:space="preserve" y="327.0107" clip-path="url(#clipPath2)" stroke="none">x</text>
      <text x="118" xml:space="preserve" y="327.0107" font-weight="normal" clip-path="url(#clipPath2)" stroke="none">INTEGER</text>
      <text x="10" xml:space="preserve" y="343.0107" clip-path="url(#clipPath2)" stroke="none">y</text>
      <text x="118" xml:space="preserve" y="343.0107" font-weight="normal" clip-path="url(#clipPath2)" stroke="none">INTEGER</text>
      <text x="10" xml:space="preserve" y="359.0107" clip-path="url(#clipPath2)" stroke="none">Factor_STEREO</text>
      <text x="118" xml:space="preserve" y="359.0107" font-weight="normal" clip-path="url(#clipPath2)" stroke="none">CHARACTER VARYING(255)</text>
      <text x="10" xml:space="preserve" y="375.0107" clip-path="url(#clipPath2)" stroke="none">DEPTH</text>
      <text x="118" xml:space="preserve" y="375.0107" font-weight="normal" clip-path="url(#clipPath2)" stroke="none">REAL</text>
      <text x="10" xml:space="preserve" y="391.0107" clip-path="url(#clipPath2)" stroke="none">DEPTH RANGE</text>
      <text x="118" xml:space="preserve" y="391.0107" font-weight="normal" clip-path="url(#clipPath2)" stroke="none">CHARACTER VARYING(255)</text>
      <text x="10" xml:space="preserve" y="407.0107" clip-path="url(#clipPath2)" stroke="none">TIMEIN</text>
      <text x="118" xml:space="preserve" y="407.0107" font-weight="normal" clip-path="url(#clipPath2)" stroke="none">TIMESTAMP(6) WITHOUT TIME ZONE</text>
      <text x="10" xml:space="preserve" y="423.0107" clip-path="url(#clipPath2)" stroke="none">TIMEOUT</text>
      <text x="118" xml:space="preserve" y="423.0107" font-weight="normal" clip-path="url(#clipPath2)" stroke="none">TIMESTAMP(6) WITHOUT TIME ZONE</text>
      <text x="10" xml:space="preserve" y="439.0107" clip-path="url(#clipPath2)" stroke="none">COMMENTS</text>
      <text x="118" xml:space="preserve" y="439.0107" font-weight="normal" clip-path="url(#clipPath2)" stroke="none">CHARACTER VARYING(255)</text>
      <text x="10" xml:space="preserve" y="455.0107" clip-path="url(#clipPath2)" stroke="none">OPDATE_TIME</text>
      <text x="118" xml:space="preserve" y="455.0107" font-weight="normal" clip-path="url(#clipPath2)" stroke="none">TIMESTAMP(6) WITHOUT TIME ZONE</text>
      <text x="10" xml:space="preserve" y="471.0107" clip-path="url(#clipPath2)" stroke="none">TIMEONSEABED</text>
      <text x="118" xml:space="preserve" y="471.0107" font-weight="normal" clip-path="url(#clipPath2)" stroke="none">CHARACTER VARYING(255)</text>
      <text x="10" xml:space="preserve" y="487.0107" clip-path="url(#clipPath2)" stroke="none">ENDSAMPLINGTIME</text>
      <text x="118" xml:space="preserve" y="487.0107" font-weight="normal" clip-path="url(#clipPath2)" stroke="none">CHARACTER VARYING(255)</text>
      <text x="10" xml:space="preserve" y="503.0107" clip-path="url(#clipPath2)" stroke="none">BENTHOSCLASS</text>
      <text x="118" xml:space="preserve" y="503.0107" font-weight="normal" clip-path="url(#clipPath2)" stroke="none">CHARACTER VARYING(255)</text>
      <text x="10" xml:space="preserve" y="519.0107" clip-path="url(#clipPath2)" stroke="none">BENTHOSNOTES</text>
      <text x="118" xml:space="preserve" y="519.0107" font-weight="normal" clip-path="url(#clipPath2)" stroke="none">CHARACTER VARYING(255)</text>
      <text x="10" xml:space="preserve" y="535.0107" clip-path="url(#clipPath2)" stroke="none">BENTHOS</text>
      <text x="118" xml:space="preserve" y="535.0107" font-weight="normal" clip-path="url(#clipPath2)" stroke="none">CHARACTER VARYING(255)</text>
      <text x="10" xml:space="preserve" y="551.0107" clip-path="url(#clipPath2)" stroke="none">BIOTA</text>
      <text x="118" xml:space="preserve" y="551.0107" font-weight="normal" clip-path="url(#clipPath2)" stroke="none">CHARACTER VARYING(255)</text>
      <text x="10" xml:space="preserve" y="567.0107" clip-path="url(#clipPath2)" stroke="none">Second Biota</text>
      <text x="118" xml:space="preserve" y="567.0107" font-weight="normal" clip-path="url(#clipPath2)" stroke="none">CHARACTER VARYING(255)</text>
      <text x="10" xml:space="preserve" y="583.0107" clip-path="url(#clipPath2)" stroke="none">View</text>
      <text x="118" xml:space="preserve" y="583.0107" font-weight="normal" clip-path="url(#clipPath2)" stroke="none">CHARACTER VARYING(255)</text>
      <text x="10" xml:space="preserve" y="599.0107" clip-path="url(#clipPath2)" stroke="none">Viz</text>
      <text x="118" xml:space="preserve" y="599.0107" font-weight="normal" clip-path="url(#clipPath2)" stroke="none">CHARACTER VARYING(255)</text>
    </g>
    <g fill="rgb(255,255,204)" transform="matrix(0.9498,0,0,0.9498,9.3288,9.4977)" stroke="rgb(255,255,204)">
      <rect x="167" width="211" height="189" y="650" clip-path="url(#clipPath2)" stroke="none"/>
      <rect x="167" y="650" clip-path="url(#clipPath2)" fill="none" width="211" height="189" stroke="gray"/>
    </g>
    <g font-size="13" font-family="sans-serif" font-weight="bold" transform="matrix(0.9498,0,0,0.9498,9.3288,9.4977)">
      <text x="237.5" xml:space="preserve" y="668.8789" clip-path="url(#clipPath2)" stroke="none">FieldNotes</text>
    </g>
    <g fill="gray" transform="matrix(0.9498,0,0,0.9498,9.3288,9.4977)" stroke="gray">
      <line y2="675" fill="none" x1="168" clip-path="url(#clipPath2)" x2="377" y1="675"/>
    </g>
    <g font-family="'Helvetica'" font-size="10" transform="matrix(0.9498,0,0,0.9498,9.3288,9.4977)">
      <text x="177" xml:space="preserve" y="689.3213" clip-path="url(#clipPath2)" stroke="none">Location</text>
      <text x="322" xml:space="preserve" y="689.3213" clip-path="url(#clipPath2)" stroke="none">TEXT</text>
      <text x="177" xml:space="preserve" y="705.3213" clip-path="url(#clipPath2)" stroke="none">Boat Name</text>
      <text x="322" xml:space="preserve" y="705.3213" clip-path="url(#clipPath2)" stroke="none">TEXT</text>
      <text x="177" xml:space="preserve" y="721.3213" clip-path="url(#clipPath2)" stroke="none">Skipper</text>
      <text x="322" xml:space="preserve" y="721.3213" clip-path="url(#clipPath2)" stroke="none">TEXT</text>
      <text x="177" xml:space="preserve" y="737.3213" clip-path="url(#clipPath2)" stroke="none">Crew</text>
      <text x="322" xml:space="preserve" y="737.3213" clip-path="url(#clipPath2)" stroke="none">TEXT</text>
      <text x="177" xml:space="preserve" y="753.3213" clip-path="url(#clipPath2)" stroke="none">CMF Staff</text>
      <text x="322" xml:space="preserve" y="753.3213" clip-path="url(#clipPath2)" stroke="none">TEXT</text>
      <text x="177" xml:space="preserve" y="769.3213" clip-path="url(#clipPath2)" stroke="none">Total Field Dates</text>
      <text x="322" xml:space="preserve" y="769.3213" clip-path="url(#clipPath2)" stroke="none">TEXT</text>
      <text x="177" xml:space="preserve" y="785.3213" clip-path="url(#clipPath2)" stroke="none">Weather down dates</text>
      <text x="322" xml:space="preserve" y="785.3213" clip-path="url(#clipPath2)" stroke="none">TEXT</text>
      <text x="177" xml:space="preserve" y="801.3213" clip-path="url(#clipPath2)" stroke="none">Effective field dates</text>
      <text x="322" xml:space="preserve" y="801.3213" clip-path="url(#clipPath2)" stroke="none">TEXT</text>
      <text x="177" xml:space="preserve" y="817.3213" clip-path="url(#clipPath2)" stroke="none">Total number of deployments</text>
      <text x="322" xml:space="preserve" y="817.3213" clip-path="url(#clipPath2)" stroke="none">SMALLINT</text>
      <text x="177" xml:space="preserve" y="833.3213" clip-path="url(#clipPath2)" stroke="none">Comments</text>
      <text x="322" xml:space="preserve" y="833.3213" clip-path="url(#clipPath2)" stroke="none">TEXT</text>
    </g>
    <g fill="rgb(255,255,204)" transform="matrix(0.9498,0,0,0.9498,9.3288,9.4977)" stroke="rgb(255,255,204)">
      <rect x="0" width="122" height="205" y="650" clip-path="url(#clipPath2)" stroke="none"/>
      <rect x="0" y="650" clip-path="url(#clipPath2)" fill="none" width="122" height="205" stroke="gray"/>
    </g>
    <g font-size="13" font-family="sans-serif" font-weight="bold" transform="matrix(0.9498,0,0,0.9498,9.3288,9.4977)">
      <text x="30" xml:space="preserve" y="668.8789" clip-path="url(#clipPath2)" stroke="none">Labsheet</text>
    </g>
    <g fill="gray" transform="matrix(0.9498,0,0,0.9498,9.3288,9.4977)" stroke="gray">
      <line y2="675" fill="none" x1="1" clip-path="url(#clipPath2)" x2="121" y1="675"/>
    </g>
    <g font-family="'Helvetica'" font-size="10" transform="matrix(0.9498,0,0,0.9498,9.3288,9.4977)">
      <text x="10" xml:space="preserve" y="689.3213" clip-path="url(#clipPath2)" stroke="none">Opcode</text>
      <text x="89" xml:space="preserve" y="689.3213" clip-path="url(#clipPath2)" stroke="none">TEXT</text>
      <text x="10" xml:space="preserve" y="705.3213" clip-path="url(#clipPath2)" stroke="none">Date Deployed</text>
      <text x="89" xml:space="preserve" y="705.3213" clip-path="url(#clipPath2)" stroke="none">DATE</text>
      <text x="10" xml:space="preserve" y="721.3213" clip-path="url(#clipPath2)" stroke="none">Cam Setting</text>
      <text x="89" xml:space="preserve" y="721.3213" clip-path="url(#clipPath2)" stroke="none">TEXT</text>
      <text x="10" xml:space="preserve" y="737.3213" clip-path="url(#clipPath2)" stroke="none">Cameras</text>
      <text x="89" xml:space="preserve" y="737.3213" clip-path="url(#clipPath2)" stroke="none">TEXT</text>
      <text x="10" xml:space="preserve" y="753.3213" clip-path="url(#clipPath2)" stroke="none">Depth</text>
      <text x="89" xml:space="preserve" y="753.3213" clip-path="url(#clipPath2)" stroke="none">REAL</text>
      <text x="10" xml:space="preserve" y="769.3213" clip-path="url(#clipPath2)" stroke="none">HD#</text>
      <text x="89" xml:space="preserve" y="769.3213" clip-path="url(#clipPath2)" stroke="none">TEXT</text>
      <text x="10" xml:space="preserve" y="785.3213" clip-path="url(#clipPath2)" stroke="none">EM Done</text>
      <text x="89" xml:space="preserve" y="785.3213" clip-path="url(#clipPath2)" stroke="none">TEXT</text>
      <text x="10" xml:space="preserve" y="801.3213" clip-path="url(#clipPath2)" stroke="none">Data EM Done</text>
      <text x="89" xml:space="preserve" y="801.3213" clip-path="url(#clipPath2)" stroke="none">DATE</text>
      <text x="10" xml:space="preserve" y="817.3213" clip-path="url(#clipPath2)" stroke="none">PM Done</text>
      <text x="89" xml:space="preserve" y="817.3213" clip-path="url(#clipPath2)" stroke="none">TEXT</text>
      <text x="10" xml:space="preserve" y="833.3213" clip-path="url(#clipPath2)" stroke="none">Date PM Done</text>
      <text x="89" xml:space="preserve" y="833.3213" clip-path="url(#clipPath2)" stroke="none">DATE</text>
      <text x="10" xml:space="preserve" y="849.3213" clip-path="url(#clipPath2)" stroke="none">Notes</text>
      <text x="89" xml:space="preserve" y="849.3213" clip-path="url(#clipPath2)" stroke="none">TEXT</text>
    </g>
    <g fill="rgb(255,255,204)" transform="matrix(0.9498,0,0,0.9498,9.3288,9.4977)" stroke="rgb(255,255,204)">
      <rect x="347" width="265" height="477" y="0" clip-path="url(#clipPath2)" stroke="none"/>
      <rect x="347" y="0" clip-path="url(#clipPath2)" fill="none" width="265" height="477" stroke="gray"/>
    </g>
    <g font-size="13" font-family="sans-serif" font-weight="bold" transform="matrix(0.9498,0,0,0.9498,9.3288,9.4977)">
      <text x="452" xml:space="preserve" y="18.5684" clip-path="url(#clipPath2)" stroke="none">Lengths</text>
    </g>
    <g fill="gray" transform="matrix(0.9498,0,0,0.9498,9.3288,9.4977)" stroke="gray">
      <line y2="25" fill="none" x1="348" clip-path="url(#clipPath2)" x2="611" y1="25"/>
    </g>
    <g font-size="10" font-family="'Helvetica'" font-weight="bold" transform="matrix(0.9498,0,0,0.9498,9.3288,9.4977)">
      <text x="357" xml:space="preserve" y="39.0107" clip-path="url(#clipPath2)" stroke="none">ID_LENGTH_ID</text>
      <text x="471" xml:space="preserve" y="39.0107" font-weight="normal" clip-path="url(#clipPath2)" stroke="none">INTEGER</text>
      <text x="357" xml:space="preserve" y="55.0107" clip-path="url(#clipPath2)" stroke="none">Project Name</text>
      <text x="471" xml:space="preserve" y="55.0107" font-weight="normal" clip-path="url(#clipPath2)" stroke="none">CHARACTER VARYING(255)</text>
      <text x="357" xml:space="preserve" y="71.0107" clip-path="url(#clipPath2)" stroke="none">Region</text>
      <text x="471" xml:space="preserve" y="71.0107" font-weight="normal" clip-path="url(#clipPath2)" stroke="none">CHARACTER VARYING(255)</text>
      <text x="357" xml:space="preserve" y="87.0107" clip-path="url(#clipPath2)" stroke="none">Location</text>
      <text x="471" xml:space="preserve" y="87.0107" font-weight="normal" clip-path="url(#clipPath2)" stroke="none">CHARACTER VARYING(255)</text>
      <text x="357" xml:space="preserve" y="103.0107" clip-path="url(#clipPath2)" stroke="none">TotalN</text>
      <text x="471" xml:space="preserve" y="103.0107" font-weight="normal" clip-path="url(#clipPath2)" stroke="none">CHARACTER VARYING(255)</text>
      <text x="357" xml:space="preserve" y="119.0107" clip-path="url(#clipPath2)" stroke="none">LENGTH_ID</text>
      <text x="471" xml:space="preserve" y="119.0107" font-weight="normal" clip-path="url(#clipPath2)" stroke="none">INTEGER</text>
      <text x="357" xml:space="preserve" y="135.0107" clip-path="url(#clipPath2)" stroke="none">LENGTH_OPCODE</text>
      <text x="471" xml:space="preserve" y="135.0107" font-weight="normal" clip-path="url(#clipPath2)" stroke="none">CHARACTER VARYING(255)</text>
      <text x="357" xml:space="preserve" y="151.0107" clip-path="url(#clipPath2)" stroke="none">LENGTH_OPCODE_N</text>
      <text x="471" xml:space="preserve" y="151.0107" font-weight="normal" clip-path="url(#clipPath2)" stroke="none">CHARACTER VARYING(255)</text>
      <text x="357" xml:space="preserve" y="167.0107" clip-path="url(#clipPath2)" stroke="none">TAXA</text>
      <text x="471" xml:space="preserve" y="167.0107" font-weight="normal" clip-path="url(#clipPath2)" stroke="none">CHARACTER VARYING(255)</text>
      <text x="357" xml:space="preserve" y="183.0107" clip-path="url(#clipPath2)" stroke="none">Length (mm)</text>
      <text x="471" xml:space="preserve" y="183.0107" font-weight="normal" clip-path="url(#clipPath2)" stroke="none">REAL</text>
      <text x="357" xml:space="preserve" y="199.0107" clip-path="url(#clipPath2)" stroke="none">Precision (mm)</text>
      <text x="471" xml:space="preserve" y="199.0107" font-weight="normal" clip-path="url(#clipPath2)" stroke="none">REAL</text>
      <text x="357" xml:space="preserve" y="215.0107" clip-path="url(#clipPath2)" stroke="none">RMS Pt 1 (mm)</text>
      <text x="471" xml:space="preserve" y="215.0107" font-weight="normal" clip-path="url(#clipPath2)" stroke="none">REAL</text>
      <text x="357" xml:space="preserve" y="231.0107" clip-path="url(#clipPath2)" stroke="none">RMS Pt 2 (mm)</text>
      <text x="471" xml:space="preserve" y="231.0107" font-weight="normal" clip-path="url(#clipPath2)" stroke="none">REAL</text>
      <text x="357" xml:space="preserve" y="247.0107" clip-path="url(#clipPath2)" stroke="none">Range (mm)</text>
      <text x="471" xml:space="preserve" y="247.0107" font-weight="normal" clip-path="url(#clipPath2)" stroke="none">REAL</text>
      <text x="357" xml:space="preserve" y="263.0107" clip-path="url(#clipPath2)" stroke="none">Direction (degrees)</text>
      <text x="471" xml:space="preserve" y="263.0107" font-weight="normal" clip-path="url(#clipPath2)" stroke="none">REAL</text>
      <text x="357" xml:space="preserve" y="279.0107" clip-path="url(#clipPath2)" stroke="none">Horz Dir (degrees)</text>
      <text x="471" xml:space="preserve" y="279.0107" font-weight="normal" clip-path="url(#clipPath2)" stroke="none">REAL</text>
      <text x="357" xml:space="preserve" y="295.0107" clip-path="url(#clipPath2)" stroke="none">Vert Dir (degrees)</text>
      <text x="471" xml:space="preserve" y="295.0107" font-weight="normal" clip-path="url(#clipPath2)" stroke="none">REAL</text>
      <text x="357" xml:space="preserve" y="311.0107" clip-path="url(#clipPath2)" stroke="none">Mid Point X (mm)</text>
      <text x="471" xml:space="preserve" y="311.0107" font-weight="normal" clip-path="url(#clipPath2)" stroke="none">CHARACTER VARYING(255)</text>
      <text x="357" xml:space="preserve" y="327.0107" clip-path="url(#clipPath2)" stroke="none">Mid Point Y (mm)</text>
      <text x="471" xml:space="preserve" y="327.0107" font-weight="normal" clip-path="url(#clipPath2)" stroke="none">CHARACTER VARYING(255)</text>
      <text x="357" xml:space="preserve" y="343.0107" clip-path="url(#clipPath2)" stroke="none">Time</text>
      <text x="471" xml:space="preserve" y="343.0107" font-weight="normal" clip-path="url(#clipPath2)" stroke="none">REAL</text>
      <text x="357" xml:space="preserve" y="359.0107" clip-path="url(#clipPath2)" stroke="none">Stage</text>
      <text x="471" xml:space="preserve" y="359.0107" font-weight="normal" clip-path="url(#clipPath2)" stroke="none">CHARACTER VARYING(255)</text>
      <text x="357" xml:space="preserve" y="375.0107" clip-path="url(#clipPath2)" stroke="none">Activity</text>
      <text x="471" xml:space="preserve" y="375.0107" font-weight="normal" clip-path="url(#clipPath2)" stroke="none">CHARACTER VARYING(255)</text>
      <text x="357" xml:space="preserve" y="391.0107" clip-path="url(#clipPath2)" stroke="none">Comment</text>
      <text x="471" xml:space="preserve" y="391.0107" font-weight="normal" clip-path="url(#clipPath2)" stroke="none">CHARACTER VARYING(255)</text>
      <text x="357" xml:space="preserve" y="407.0107" clip-path="url(#clipPath2)" stroke="none">Original filename</text>
      <text x="471" xml:space="preserve" y="407.0107" font-weight="normal" clip-path="url(#clipPath2)" stroke="none">CHARACTER VARYING(255)</text>
      <text x="357" xml:space="preserve" y="423.0107" clip-path="url(#clipPath2)" stroke="none">Original frame no</text>
      <text x="471" xml:space="preserve" y="423.0107" font-weight="normal" clip-path="url(#clipPath2)" stroke="none">INTEGER</text>
      <text x="357" xml:space="preserve" y="439.0107" clip-path="url(#clipPath2)" stroke="none">Occurrence</text>
      <text x="471" xml:space="preserve" y="439.0107" font-weight="normal" clip-path="url(#clipPath2)" stroke="none">INTEGER</text>
      <text x="357" xml:space="preserve" y="455.0107" clip-path="url(#clipPath2)" stroke="none">Unique ID</text>
      <text x="471" xml:space="preserve" y="455.0107" font-weight="normal" clip-path="url(#clipPath2)" stroke="none">CHARACTER VARYING(255)</text>
      <text x="357" xml:space="preserve" y="471.0107" clip-path="url(#clipPath2)" stroke="none">Fish ID/Code</text>
      <text x="471" xml:space="preserve" y="471.0107" font-weight="normal" clip-path="url(#clipPath2)" stroke="none">CHARACTER VARYING(255)</text>
    </g>
    <g fill="rgb(255,255,204)" transform="matrix(0.9498,0,0,0.9498,9.3288,9.4977)" stroke="rgb(255,255,204)">
      <rect x="657" width="252" height="445" y="0" clip-path="url(#clipPath2)" stroke="none"/>
      <rect x="657" y="0" clip-path="url(#clipPath2)" fill="none" width="252" height="445" stroke="gray"/>
    </g>
    <g font-size="13" font-family="sans-serif" font-weight="bold" transform="matrix(0.9498,0,0,0.9498,9.3288,9.4977)">
      <text x="764" xml:space="preserve" y="18.5684" clip-path="url(#clipPath2)" stroke="none">MaxN</text>
    </g>
    <g fill="gray" transform="matrix(0.9498,0,0,0.9498,9.3288,9.4977)" stroke="gray">
      <line y2="25" fill="none" x1="658" clip-path="url(#clipPath2)" x2="908" y1="25"/>
    </g>
    <g font-size="10" font-family="'Helvetica'" font-weight="bold" transform="matrix(0.9498,0,0,0.9498,9.3288,9.4977)">
      <text x="667" xml:space="preserve" y="39.0107" clip-path="url(#clipPath2)" stroke="none">ID_ABUN_ID</text>
      <text x="768" xml:space="preserve" y="39.0107" font-weight="normal" clip-path="url(#clipPath2)" stroke="none">INTEGER</text>
      <text x="667" xml:space="preserve" y="55.0107" clip-path="url(#clipPath2)" stroke="none">Project Name</text>
      <text x="768" xml:space="preserve" y="55.0107" font-weight="normal" clip-path="url(#clipPath2)" stroke="none">CHARACTER VARYING(255)</text>
      <text x="667" xml:space="preserve" y="71.0107" clip-path="url(#clipPath2)" stroke="none">Region</text>
      <text x="768" xml:space="preserve" y="71.0107" font-weight="normal" clip-path="url(#clipPath2)" stroke="none">CHARACTER VARYING(255)</text>
      <text x="667" xml:space="preserve" y="87.0107" clip-path="url(#clipPath2)" stroke="none">Location</text>
      <text x="768" xml:space="preserve" y="87.0107" font-weight="normal" clip-path="url(#clipPath2)" stroke="none">CHARACTER VARYING(255)</text>
      <text x="667" xml:space="preserve" y="103.0107" clip-path="url(#clipPath2)" stroke="none">TotalN</text>
      <text x="768" xml:space="preserve" y="103.0107" font-weight="normal" clip-path="url(#clipPath2)" stroke="none">CHARACTER VARYING(255)</text>
      <text x="667" xml:space="preserve" y="119.0107" clip-path="url(#clipPath2)" stroke="none">ABUN_ID</text>
      <text x="768" xml:space="preserve" y="119.0107" font-weight="normal" clip-path="url(#clipPath2)" stroke="none">INTEGER</text>
      <text x="667" xml:space="preserve" y="135.0107" clip-path="url(#clipPath2)" stroke="none">Filename</text>
      <text x="768" xml:space="preserve" y="135.0107" font-weight="normal" clip-path="url(#clipPath2)" stroke="none">CHARACTER VARYING(255)</text>
      <text x="667" xml:space="preserve" y="151.0107" clip-path="url(#clipPath2)" stroke="none">Frame</text>
      <text x="768" xml:space="preserve" y="151.0107" font-weight="normal" clip-path="url(#clipPath2)" stroke="none">INTEGER</text>
      <text x="667" xml:space="preserve" y="167.0107" clip-path="url(#clipPath2)" stroke="none">ABUN_OPCODE</text>
      <text x="768" xml:space="preserve" y="167.0107" font-weight="normal" clip-path="url(#clipPath2)" stroke="none">CHARACTER VARYING(255)</text>
      <text x="667" xml:space="preserve" y="183.0107" clip-path="url(#clipPath2)" stroke="none">ABUN_OPCODE_N</text>
      <text x="768" xml:space="preserve" y="183.0107" font-weight="normal" clip-path="url(#clipPath2)" stroke="none">CHARACTER VARYING(255)</text>
      <text x="667" xml:space="preserve" y="199.0107" clip-path="url(#clipPath2)" stroke="none">Tape Reader</text>
      <text x="768" xml:space="preserve" y="199.0107" font-weight="normal" clip-path="url(#clipPath2)" stroke="none">CHARACTER VARYING(255)</text>
      <text x="667" xml:space="preserve" y="215.0107" clip-path="url(#clipPath2)" stroke="none">Depth</text>
      <text x="768" xml:space="preserve" y="215.0107" font-weight="normal" clip-path="url(#clipPath2)" stroke="none">REAL</text>
      <text x="667" xml:space="preserve" y="231.0107" clip-path="url(#clipPath2)" stroke="none">Comment</text>
      <text x="768" xml:space="preserve" y="231.0107" font-weight="normal" clip-path="url(#clipPath2)" stroke="none">CHARACTER VARYING(255)</text>
      <text x="667" xml:space="preserve" y="247.0107" clip-path="url(#clipPath2)" stroke="none">Spare</text>
      <text x="768" xml:space="preserve" y="247.0107" font-weight="normal" clip-path="url(#clipPath2)" stroke="none">CHARACTER VARYING(255)</text>
      <text x="667" xml:space="preserve" y="263.0107" clip-path="url(#clipPath2)" stroke="none">Field12</text>
      <text x="768" xml:space="preserve" y="263.0107" font-weight="normal" clip-path="url(#clipPath2)" stroke="none">CHARACTER VARYING(255)</text>
      <text x="667" xml:space="preserve" y="279.0107" clip-path="url(#clipPath2)" stroke="none">Field13</text>
      <text x="768" xml:space="preserve" y="279.0107" font-weight="normal" clip-path="url(#clipPath2)" stroke="none">CHARACTER VARYING(255)</text>
      <text x="667" xml:space="preserve" y="295.0107" clip-path="url(#clipPath2)" stroke="none">Field14</text>
      <text x="768" xml:space="preserve" y="295.0107" font-weight="normal" clip-path="url(#clipPath2)" stroke="none">CHARACTER VARYING(255)</text>
      <text x="667" xml:space="preserve" y="311.0107" clip-path="url(#clipPath2)" stroke="none">Field15</text>
      <text x="768" xml:space="preserve" y="311.0107" font-weight="normal" clip-path="url(#clipPath2)" stroke="none">CHARACTER VARYING(255)</text>
      <text x="667" xml:space="preserve" y="327.0107" clip-path="url(#clipPath2)" stroke="none">Field16</text>
      <text x="768" xml:space="preserve" y="327.0107" font-weight="normal" clip-path="url(#clipPath2)" stroke="none">CHARACTER VARYING(255)</text>
      <text x="667" xml:space="preserve" y="343.0107" clip-path="url(#clipPath2)" stroke="none">Field17</text>
      <text x="768" xml:space="preserve" y="343.0107" font-weight="normal" clip-path="url(#clipPath2)" stroke="none">CHARACTER VARYING(255)</text>
      <text x="667" xml:space="preserve" y="359.0107" clip-path="url(#clipPath2)" stroke="none">TAXA</text>
      <text x="768" xml:space="preserve" y="359.0107" font-weight="normal" clip-path="url(#clipPath2)" stroke="none">CHARACTER VARYING(255)</text>
      <text x="667" xml:space="preserve" y="375.0107" clip-path="url(#clipPath2)" stroke="none">Family</text>
      <text x="768" xml:space="preserve" y="375.0107" font-weight="normal" clip-path="url(#clipPath2)" stroke="none">CHARACTER VARYING(255)</text>
      <text x="667" xml:space="preserve" y="391.0107" clip-path="url(#clipPath2)" stroke="none">Genus</text>
      <text x="768" xml:space="preserve" y="391.0107" font-weight="normal" clip-path="url(#clipPath2)" stroke="none">CHARACTER VARYING(255)</text>
      <text x="667" xml:space="preserve" y="407.0107" clip-path="url(#clipPath2)" stroke="none">Species</text>
      <text x="768" xml:space="preserve" y="407.0107" font-weight="normal" clip-path="url(#clipPath2)" stroke="none">CHARACTER VARYING(255)</text>
      <text x="667" xml:space="preserve" y="423.0107" clip-path="url(#clipPath2)" stroke="none">MaxN</text>
      <text x="768" xml:space="preserve" y="423.0107" font-weight="normal" clip-path="url(#clipPath2)" stroke="none">INTEGER</text>
      <text x="667" xml:space="preserve" y="439.0107" clip-path="url(#clipPath2)" stroke="none">Has fed</text>
      <text x="768" xml:space="preserve" y="439.0107" font-weight="normal" clip-path="url(#clipPath2)" stroke="none">CHARACTER VARYING(255)</text>
    </g>
  </g>
</svg>
